# xmcd
#
# Track frame offsets: 
#        150
#        18270
#        34969
#        52497
#        66138
#        81626
#        95844
#        108981
#        128949
#        143639
#        158610
#        169215
#        186097
#
# Disc length: 2770 seconds
#
# Revision: 4
# Processed by: cddbd v1.5.2PL0 Copyright (c) Steve Scherf et al.
# Submitted via: ExactAudioCopy v1.3
#
DISCID=bb0ad00d
DTITLE=Bonnie 'Prince' Billy - Beware
DYEAR=2009
DGENRE=Folk
TTITLE0=Beware Your Only Friend
TTITLE1=You Can't Hurt Me Now
TTITLE2=My Life's Work
TTITLE3=Death Final
TTITLE4=Heart's Arms
TTITLE5=You Don't Love Me
TTITLE6=You Are Lost
TTITLE7=I Won't Ask Again
TTITLE8=I Don't Belong To Anyone
TTITLE9=There Is Something I Have To Say
TTITLE10=I Am Goodbye
TTITLE11=Without Work, You Have Nothing
TTITLE12=Afraid Ain't Me
EXTD=
EXTT0=
EXTT1=
EXTT2=
EXTT3=
EXTT4=
EXTT5=
EXTT6=
EXTT7=
EXTT8=
EXTT9=
EXTT10=
EXTT11=
EXTT12=
PLAYORDER=
